<svg xmlns="http://www.w3.org/2000/svg" xmlns:xlink="http://www.w3.org/1999/xlink" viewBox="0 0 200 200"><defs><style>.cls-1{fill:url(#linear-gradient);}.cls-2{fill:url(#linear-gradient-2);}.cls-3{fill:url(#linear-gradient-3);}</style><linearGradient id="linear-gradient" x1="13.01" y1="135.94" x2="185.95" y2="65.63" gradientUnits="userSpaceOnUse"><stop offset="0" stop-color="#735fdb"/><stop offset="0.5" stop-color="#3fa9f5"/><stop offset="1" stop-color="#5ed1eb"/></linearGradient><linearGradient id="linear-gradient-2" x1="79.05" y1="77.53" x2="125" y2="53.88" gradientUnits="userSpaceOnUse"><stop offset="0" stop-color="#735fdb"/><stop offset="0.64" stop-color="#3fa9f5"/><stop offset="1" stop-color="#5ed1eb"/></linearGradient><linearGradient id="linear-gradient-3" x1="57.76" y1="152.12" x2="158.19" y2="105.42" xlink:href="#linear-gradient-2"/></defs><g id="Branding"><path class="cls-1" d="M99.48,19.36c45.7,0,82.89,36.53,82.89,81.43s-37.19,81.43-82.89,81.43-82.89-36.53-82.89-81.43S53.77,19.36,99.48,19.36m0-10.64C47.83,8.72,6,49.94,6,100.79s41.88,92.06,93.53,92.06S193,151.63,193,100.79,151.13,8.72,99.48,8.72Z"/><ellipse class="cls-2" cx="99.48" cy="67.02" rx="25.84" ry="25.44"/><path class="cls-3" d="M130.86,150V124.56H116.09V150H82.86V124.56H68.1V150h-24c0-30.1,24.79-54.51,55.38-54.51s55.37,24.41,55.37,54.51Z"/></g></svg>